<svg width="26" height="28" viewBox="0 0 26 28" fill="none" xmlns="http://www.w3.org/2000/svg">
<path d="M15.1966 21.9489C13.7236 20.5118 13.6945 18.1527 15.1316 16.6797C16.5687 15.2067 18.9278 15.1776 20.4008 16.6147L24.6682 20.7781C26.1411 22.2152 26.1702 24.5743 24.7331 26.0473C23.296 27.5202 20.9369 27.5493 19.4639 26.1122L15.1966 21.9489Z" fill="#202020"/>
<path d="M11.4363 16.1982L14.5589 12.9977L17.7594 16.1202L14.6368 19.3207L11.4363 16.1982Z" fill="#202020"/>
<path d="M13.9222 3.1586C17.1628 6.32022 17.2267 11.5102 14.0651 14.7508C10.9035 17.9914 5.71349 18.0554 2.47292 14.8937C-0.76765 11.7321 -0.831645 6.5421 2.32998 3.30153C5.49161 0.0609629 10.6816 -0.00303149 13.9222 3.1586Z" fill="white"/>
<path d="M10.7206 15.4998L10.3274 15.9028C7.88926 16.6556 5.12622 16.0853 3.17125 14.178C0.325994 11.402 0.269806 6.84513 3.04575 3.99987C5.8217 1.15461 10.3786 1.09842 13.2239 3.87437C15.413 6.01017 15.9511 9.20025 14.8185 11.8539L14.5414 11.5836L13.8431 12.2993L10.7206 15.4998ZM15.1859 15.0065L15.3954 15.2109C15.0443 15.4185 14.7144 15.6754 14.4159 15.9813C14.1173 16.2874 13.8686 16.6236 13.6696 16.98L13.3374 16.6558C13.8488 16.3105 14.333 15.9082 14.7809 15.4491C14.9216 15.3049 15.0566 15.1573 15.1859 15.0065ZM15.8949 21.2331C15.5765 20.9224 15.3502 20.5527 15.2167 20.1583L15.3526 20.019L18.4751 16.8185L18.6113 16.6789C19.0089 16.8027 19.384 17.0198 19.7025 17.3305L23.9698 21.4939C25.0475 22.5453 25.0688 24.2712 24.0174 25.3489C22.9659 26.4266 21.24 26.4479 20.1623 25.3965L15.8949 21.2331Z" stroke="#202020" stroke-width="2"/>
</svg>
